<svg width="126" height="99" viewBox="0 0 126 99" fill="none" xmlns="http://www.w3.org/2000/svg">
<path d="M49.4615 21.3836C51.7328 27.2514 47.6881 34.2866 42.5244 36.2854C37.3607 38.2842 29.8459 35.7235 27.5745 29.8556C25.3032 23.9877 28.2471 15.3277 33.4108 13.329C40.2963 10.6637 47.1901 15.5157 49.4615 21.3836Z" fill="#D1D5DB"/>
<path d="M52.373 21.1308C51.1487 27.3027 56.3471 33.5341 61.7783 34.6116C67.2095 35.689 74.1695 31.8695 75.3938 25.6977C76.6182 19.5258 72.2236 11.504 66.7924 10.4265C59.5502 8.98983 53.5974 14.959 52.373 21.1308Z" fill="#D1D5DB"/>
<path d="M105.761 66.1278C105.761 86.8918 85.6165 94.6101 58.1383 94.6101C30.6602 94.6101 10.9717 86.8918 10.9717 66.1278C10.9717 41.9748 30.6602 20.5562 58.1383 20.5562C85.6165 20.5562 105.761 40.152 105.761 66.1278Z" fill="#F3F4F6"/>
<path d="M92.8298 65.8886C92.8298 81.1103 78.7166 86.7684 59.4652 86.7684C40.2139 86.7684 26.4199 81.1103 26.4199 65.8886C26.4199 48.1826 40.2139 32.481 59.4652 32.481C78.7166 32.481 92.8298 46.8462 92.8298 65.8886Z" fill="#F9FAFB"/>
<path d="M57.6481 63.7651C57.6481 68.7988 54.5786 74.3209 50.2892 74.3209C45.9999 74.3209 39.0708 70.2194 39.0708 62.7001C39.0708 55.6365 46.5562 53.1243 54.2912 54.4142C59.032 55.2048 57.6481 58.7314 57.6481 63.7651Z" fill="#D1D5DB"/>
<path d="M54.0606 63.2566C54.0606 64.0116 53.8448 64.6237 52.7661 64.6237C51.6874 64.6237 51.4717 64.0116 51.4717 63.2566C51.4717 62.5015 51.9032 61.8894 52.7661 61.8894C53.6291 61.8894 54.0606 62.5015 54.0606 63.2566Z" fill="#F3F4F6"/>
<path d="M70.3418 63.7651C70.3418 68.7988 73.1868 74.3209 77.1625 74.3209C81.1382 74.3209 87.5605 70.2194 87.5605 62.7001C87.5605 55.6365 80.6225 53.1243 73.4532 54.4142C69.0591 55.2048 70.3418 58.7314 70.3418 63.7651Z" fill="#D1D5DB"/>
<path d="M73.6673 63.2566C73.6673 64.0116 73.8673 64.6237 74.8671 64.6237C75.8669 64.6237 76.0669 64.0116 76.0669 63.2566C76.0669 62.5015 75.667 61.8894 74.8671 61.8894C74.0673 61.8894 73.6673 62.5015 73.6673 63.2566Z" fill="#F3F4F6"/>
<path d="M59.2237 71.0969C58.9764 70.7371 58.4842 70.646 58.1244 70.8933C57.7646 71.1407 57.6734 71.6329 57.9208 71.9927L59.2237 71.0969ZM64.37 69.9636L65.1176 69.7066C65.0079 69.3874 64.7075 69.173 64.37 69.173C64.0324 69.173 63.732 69.3874 63.6223 69.7066L64.37 69.9636ZM70.8191 71.9927C71.0665 71.6329 70.9753 71.1407 70.6155 70.8933C70.2557 70.646 69.7635 70.7371 69.5162 71.0969L70.8191 71.9927ZM57.9208 71.9927C58.1585 72.3385 58.5935 72.8061 59.178 73.1925C59.7674 73.5822 60.5512 73.9166 61.4711 73.9166V72.3354C60.9416 72.3354 60.4571 72.1427 60.0501 71.8736C59.6381 71.6012 59.3484 71.2782 59.2237 71.0969L57.9208 71.9927ZM61.4711 73.9166C62.5853 73.9166 63.4248 73.1231 63.9588 72.417C64.5193 71.6758 64.9165 70.8056 65.1176 70.2206L63.6223 69.7066C63.461 70.1758 63.1335 70.8868 62.6976 71.4632C62.2351 72.0748 61.8064 72.3354 61.4711 72.3354V73.9166ZM63.6223 70.2206C63.8234 70.8056 64.2206 71.6758 64.7811 72.417C65.3151 73.1231 66.1546 73.9166 67.2688 73.9166V72.3354C66.9335 72.3354 66.5048 72.0748 66.0423 71.4632C65.6064 70.8868 65.2789 70.1758 65.1176 69.7066L63.6223 70.2206ZM67.2688 73.9166C68.1887 73.9166 68.9725 73.5822 69.5619 73.1925C70.1464 72.8061 70.5814 72.3385 70.8191 71.9927L69.5162 71.0969C69.3915 71.2782 69.1018 71.6012 68.6898 71.8736C68.2828 72.1427 67.7983 72.3354 67.2688 72.3354V73.9166Z" fill="#D1D5DB"/>
<path d="M69.1965 69.1512C69.1965 69.8924 65.8095 70.838 64.7347 71.1194C64.5222 71.1751 64.3007 71.1751 64.0883 71.1194C63.0135 70.838 59.6265 69.8924 59.6265 69.1512C59.6265 68.2703 62.2722 67.3284 64.4115 67.3284C66.5508 67.3284 69.1965 68.2703 69.1965 69.1512Z" fill="#D1D5DB"/>
<path d="M65.1139 44.965C44.7755 46.2437 39.8149 39.7514 39.0708 37.0121L50.4802 30.6498L63.3777 28.2639L81.2358 37.5423C80.161 39.7514 77.621 44.1787 65.1139 44.965Z" fill="#D1D5DB"/>
<path fill-rule="evenodd" clip-rule="evenodd" d="M60.6055 94.6758C86.6613 94.6758 105.763 86.9575 105.763 66.1935C105.763 40.2176 86.6613 20.6218 60.6055 20.6218C34.5498 20.6218 15.8804 42.0405 15.8804 66.1935C15.8804 86.9575 34.5498 94.6758 60.6055 94.6758ZM59.5814 86.7011C78.7474 86.7011 92.7981 81.0489 92.7981 65.8433C92.7981 46.821 78.7474 32.4708 59.5814 32.4708C40.4154 32.4708 26.6826 48.1559 26.6826 65.8433C26.6826 81.0489 40.4154 86.7011 59.5814 86.7011Z" fill="#F3F4F6"/>
<path fill-rule="evenodd" clip-rule="evenodd" d="M5.21914 49.1236C8.10865 45.8882 13.3166 46.4249 15.4855 50.1816L18.6621 55.6835C20.831 59.4402 18.6918 64.2188 14.4451 65.1035L13.0639 65.3912C12.9849 65.4077 12.9058 65.4226 12.8266 65.436C12.7968 65.5181 12.759 65.598 12.7146 65.6743C11.4569 67.8363 10.8582 72.817 17.0549 78.5814C23.0928 84.198 28.3123 84.6066 30.7149 84.0068C30.8854 83.9642 31.0624 83.9521 31.2332 83.9737L31.5477 83.3502C33.5013 79.4772 38.6707 78.6476 41.7381 81.715L46.2304 86.2073C49.2977 89.2746 48.4682 94.444 44.5952 96.3977L44.3046 96.5442C44.225 96.6704 44.1116 96.7799 43.964 96.8599C36.3144 101.012 19.1182 99.0047 9.71205 85.9243C-2.06101 69.5524 -0.87496 55.6321 3.76703 50.6653C3.84616 50.5806 3.93626 50.5156 4.03266 50.4694C4.11156 50.3696 4.19381 50.2717 4.27938 50.1759L5.21914 49.1236Z" fill="#D1D5DB"/>
<path d="M96.2643 19.446C97.5269 16.5755 98.6484 16.0213 100.376 15.762C101.712 15.5569 102.811 15.2474 103.27 14.2036C103.729 13.1598 103.191 12.1303 102.171 11.6816C101.175 11.2434 99.9364 11.5481 99.3909 12.7238L95.619 11.0648C97.2003 7.59836 100.475 7.17 103.582 8.53691C107.022 10.0499 108.783 12.8061 107.458 15.819C106.581 17.8117 104.971 18.5757 102.964 18.8255C101.349 19.0212 100.419 19.4616 99.7516 20.9799L99.6055 21.312L96.1183 19.7781L96.2643 19.446ZM95.5108 26.0512C94.3247 25.5294 93.7694 24.1527 94.3253 22.9533C94.8129 21.7804 96.2029 21.2593 97.389 21.781C98.5278 22.2819 99.1067 23.669 98.6192 24.8419C98.0633 26.0413 96.6495 26.552 95.5108 26.0512Z" fill="#D1D5DB"/>
<path d="M107.826 27.5493C109.494 25.8281 110.445 25.729 111.752 26.0026C112.764 26.2108 113.633 26.2811 114.24 25.6552C114.846 25.0293 114.734 24.1486 114.123 23.5558C113.525 22.9769 112.557 22.8661 111.853 23.5636L109.592 21.372C111.646 19.3084 114.107 19.872 115.97 21.6777C118.033 23.6763 118.562 26.1194 116.811 27.926C115.653 29.1209 114.296 29.2404 112.792 28.8859C111.583 28.5968 110.799 28.6651 109.917 29.5755L109.724 29.7747L107.633 27.7485L107.826 27.5493ZM105.53 32.0821C104.819 31.3929 104.787 30.2587 105.504 29.547C106.165 28.8362 107.3 28.8323 108.011 29.5215C108.694 30.1832 108.74 31.3311 108.079 32.0419C107.362 32.7536 106.213 32.7437 105.53 32.0821Z" fill="#D1D5DB"/>
</svg>
