<svg width="100" height="99" viewBox="0 0 100 99" fill="none" xmlns="http://www.w3.org/2000/svg">
<path fill-rule="evenodd" clip-rule="evenodd" d="M24 0C10.7452 0 0 10.7452 0 24V25C0 36.9621 8.75142 46.8802 20.201 48.701L27.5 56L34.5 49H76C89.2548 49 100 38.2548 100 25V24C100 10.7452 89.2548 0 76 0H24Z" fill="#F3F4F6"/>
<path fill-rule="evenodd" clip-rule="evenodd" d="M54.5 54C44.2827 54 36 62.2827 36 72.5C36 82.7173 44.2827 91 54.5 91H66L74 99L82.0068 90.9932C91.9898 90.7247 100 82.5478 100 72.5C100 62.2827 91.7173 54 81.5 54H54.5Z" fill="#F3F4F6"/>
</svg>
